<svg width="28" height="26" viewBox="0 0 28 26" fill="none" xmlns="http://www.w3.org/2000/svg">
<path d="M6.5 15.5981C4.5 14.4434 4.5 11.5566 6.5 10.4019L17 4.33975C19 3.18504 21.5 4.62842 21.5 6.93782L21.5 19.0622C21.5 21.3716 19 22.815 17 21.6603L6.5 15.5981Z" fill="#00D492"/>
<path d="M8 14.7321C6.66667 13.9623 6.66667 12.0377 8 11.2679L17 6.0718C18.3333 5.302 20 6.26425 20 7.80385L20 18.1962C20 19.7358 18.3333 20.698 17 19.9282L8 14.7321Z" fill="#00D492"/>
<rect width="2" height="16" rx="1" transform="matrix(-1 0 0 1 2 5)" fill="#00D492"/>
</svg>
