<svg width="903" height="584" viewBox="0 0 903 584" fill="none" xmlns="http://www.w3.org/2000/svg">
<rect x="2.5" y="2.5" width="898" height="578.886" rx="21.5" fill="#3F3F46" stroke="#222226" stroke-width="5"/>
<circle cx="26" cy="559" r="8" fill="#18181B"/>
<circle cx="880" cy="559" r="8" fill="#18181B"/>
<circle cx="880" cy="26" r="8" fill="#18181B"/>
<circle cx="26" cy="26" r="8" fill="#18181B"/>
<circle cx="24" cy="24" r="6.5" fill="#00D492" stroke="#222226" stroke-width="3"/>
<circle cx="24" cy="557" r="6.5" fill="#00D492" stroke="#222226" stroke-width="3"/>
<circle cx="878" cy="557" r="6.5" fill="#00D492" stroke="#222226" stroke-width="3"/>
<circle cx="878" cy="24" r="6.5" fill="#00D492" stroke="#222226" stroke-width="3"/>
<rect x="37" y="22" width="828" height="4" rx="2" fill="#222226"/>
<rect x="37" y="555" width="828" height="4" rx="2" fill="#222226"/>
<rect x="880" y="37" width="507" height="4" rx="2" transform="rotate(90 880 37)" fill="#222226"/>
<rect x="26" y="37" width="507" height="4" rx="2" transform="rotate(90 26 37)" fill="#222226"/>
<rect x="489" y="36" width="163" height="207" rx="12" fill="#18181B"/>
<rect x="42" y="236" width="465" height="303" rx="12" fill="#18181B"/>
<path d="M529.649 243C510.94 243.352 505.9 250.01 507 271.5L503 243H529.649C530.721 242.98 531.837 242.98 533 243H529.649Z" fill="#18181B"/>
<path d="M525 237H500V261C503.459 244.81 508.963 239.592 525 237Z" fill="#2B2B32"/>
<rect x="461" y="32" width="186" height="207" rx="12" fill="#2B2B32"/>
<rect x="32" y="32" width="470" height="502" rx="12" fill="#2B2B32"/>
<rect x="519" y="442" width="352" height="97" rx="12" fill="#18181B"/>
<rect x="514" y="437" width="352" height="97" rx="12" fill="#2B2B32"/>
<rect x="519" y="261" width="352" height="172" rx="12" fill="#18181B"/>
<rect x="514" y="249" width="352" height="179" rx="12" fill="#2B2B32"/>
<rect x="525" y="257" width="330" height="164" rx="10" fill="#18181B" stroke="#18181B" stroke-width="4"/>
<rect x="661" y="36" width="89" height="207" rx="12" fill="#18181B"/>
<rect x="656" y="32" width="89" height="207" rx="12" fill="#2B2B32"/>
<rect x="679" y="219" width="23" height="4" rx="2" fill="#104B3E"/>
<rect x="685.9" y="209" width="9.2" height="2" rx="1" fill="#104B3E"/>
<rect x="685.9" y="189" width="9.2" height="2" rx="1" fill="#104B3E"/>
<rect x="685.9" y="169" width="9.2" height="2" rx="1" fill="#104B3E"/>
<rect x="685.9" y="149" width="9.2" height="2" rx="1" fill="#104B3E"/>
<rect x="682.833" y="199" width="15.3333" height="2" rx="1" fill="#104B3E"/>
<rect x="682.833" y="179" width="15.3333" height="2" rx="1" fill="#104B3E"/>
<rect x="682.833" y="159" width="15.3333" height="2" rx="1" fill="#104B3E"/>
<rect x="685.9" y="130" width="9.2" height="2" rx="1" fill="#104B3E"/>
<rect x="685.9" y="110" width="9.2" height="2" rx="1" fill="#104B3E"/>
<rect x="685.9" y="90" width="9.2" height="2" rx="1" fill="#104B3E"/>
<rect x="685.9" y="70" width="9.2" height="2" rx="1" fill="#104B3E"/>
<rect x="682.833" y="120" width="15.3333" height="2" rx="1" fill="#104B3E"/>
<rect x="682.833" y="100" width="15.3333" height="2" rx="1" fill="#104B3E"/>
<rect x="682.833" y="80" width="15.3333" height="2" rx="1" fill="#104B3E"/>
<rect x="679" y="61" width="23" height="4" rx="2" fill="#104B3E"/>
<rect x="679" y="137" width="23" height="4" rx="2" fill="#104B3E"/>
<rect x="682" y="219" width="17" height="4" rx="2" fill="#00D492"/>
<rect x="687.1" y="209" width="6.8" height="2" rx="1" fill="#00D492"/>
<rect x="687.1" y="189" width="6.8" height="2" rx="1" fill="#00D492"/>
<rect x="687.1" y="169" width="6.8" height="2" rx="1" fill="#00D492"/>
<rect x="687.1" y="149" width="6.8" height="2" rx="1" fill="#00D492"/>
<rect x="684.833" y="199" width="11.3333" height="2" rx="1" fill="#00D492"/>
<rect x="684.833" y="179" width="11.3333" height="2" rx="1" fill="#00D492"/>
<rect x="684.833" y="159" width="11.3333" height="2" rx="1" fill="#00D492"/>
<rect x="687.1" y="130" width="6.8" height="2" rx="1" fill="#00D492"/>
<rect x="687.1" y="110" width="6.8" height="2" rx="1" fill="#00D492"/>
<rect x="687.1" y="90" width="6.8" height="2" rx="1" fill="#00D492"/>
<rect x="687.1" y="70" width="6.8" height="2" rx="1" fill="#00D492"/>
<rect x="684.833" y="120" width="11.3333" height="2" rx="1" fill="#00D492"/>
<rect x="684.833" y="100" width="11.3333" height="2" rx="1" fill="#00D492"/>
<rect x="684.833" y="80" width="11.3333" height="2" rx="1" fill="#00D492"/>
<rect x="682" y="61" width="17" height="4" rx="2" fill="#00D492"/>
<rect x="682" y="137" width="17" height="4" rx="2" fill="#00D492"/>
<path d="M837.214 75.0175C837.214 74.304 837.594 73.6445 838.212 73.2868L857.355 62.1999C858.688 61.4277 860.357 62.3898 860.357 63.9306V64.254C860.357 64.9698 859.975 65.631 859.354 65.9878L845.368 74.03C844.031 74.7984 844.03 76.726 845.366 77.4962L859.356 85.566C859.976 85.9232 860.357 86.5836 860.357 87.2985V87.5915C860.357 89.1323 858.688 90.0944 857.355 89.3222L838.212 78.2353C837.594 77.8777 837.214 77.2182 837.214 76.5046V75.0175Z" fill="#18181B"/>
<path d="M862.929 65.7414C862.929 66.4572 862.546 67.1184 861.926 67.4752L850.521 74.033C849.184 74.8014 849.183 76.729 850.518 77.4993L861.928 84.0808C862.547 84.4379 862.929 85.0984 862.929 85.8132V92.0523C862.929 93.5932 861.26 94.5553 859.926 93.783L835.641 79.7175C835.023 79.3599 834.643 78.7004 834.643 77.9868V73.5351C834.643 72.8215 835.023 72.162 835.641 71.8044L859.926 57.7389C861.26 56.9666 862.929 57.9287 862.929 59.4696V65.7414ZM860.357 63.9306C860.357 62.3898 858.688 61.4277 857.355 62.1999L838.212 73.2866C837.594 73.6442 837.214 74.3037 837.214 75.0173V76.5046C837.214 77.2182 837.594 77.8777 838.212 78.2353L857.355 89.322C858.688 90.0942 860.357 89.1321 860.357 87.5913V87.2986C860.357 86.5838 859.976 85.9233 859.356 85.5661L845.365 77.4961C844.03 76.7259 844.031 74.7983 845.368 74.0299L859.354 65.988C859.975 65.6312 860.357 64.9699 860.357 64.2541V63.9306Z" fill="#18181B"/>
<path d="M837.214 101.072C837.214 99.9671 838.11 99.0717 839.214 99.0717H858.357C859.462 99.0717 860.357 99.9671 860.357 101.072V101.282C860.357 102.387 859.462 103.282 858.357 103.282H839.214C838.11 103.282 837.214 102.387 837.214 101.282V101.072Z" fill="#18181B"/>
<path d="M858.357 103.283C859.462 103.283 860.357 102.387 860.357 101.283V101.071C860.357 99.9669 859.462 99.0714 858.357 99.0714H839.214C838.11 99.0714 837.214 99.9669 837.214 101.071V101.283C837.214 102.387 838.11 103.283 839.214 103.283H858.357ZM836.643 105.854C835.538 105.854 834.643 104.959 834.643 103.854V98.5C834.643 97.3954 835.538 96.5 836.643 96.5H860.929C862.033 96.5 862.929 97.3954 862.929 98.5V103.854C862.929 104.959 862.033 105.854 860.929 105.854H836.643Z" fill="#18181B"/>
<path d="M836.571 116.5C836.571 115.396 837.467 114.5 838.571 114.5H857.714C858.819 114.5 859.714 115.396 859.714 116.5V118.229C859.714 118.82 859.453 119.38 859.001 119.76L847.009 129.837C845.58 131.038 846.429 133.368 848.296 133.368H857.714C858.819 133.368 859.714 134.263 859.714 135.368V135.643C859.714 136.748 858.819 137.643 857.714 137.643H838.571C837.467 137.643 836.571 136.748 836.571 135.643V133.914C836.571 133.323 836.832 132.763 837.284 132.383L849.31 122.274C850.739 121.073 849.89 118.743 848.023 118.743H838.571C837.467 118.743 836.571 117.848 836.571 116.743V116.5Z" fill="#18181B"/>
<path d="M857.714 137.643C858.819 137.643 859.714 136.747 859.714 135.643V135.368C859.714 134.264 858.819 133.368 857.714 133.368H848.296C846.43 133.368 845.58 131.038 847.009 129.837L859.001 119.76C859.453 119.38 859.714 118.82 859.714 118.229V116.5C859.714 115.395 858.819 114.5 857.714 114.5H838.571C837.467 114.5 836.571 115.395 836.571 116.5V116.743C836.571 117.848 837.467 118.743 838.571 118.743H848.023C849.889 118.743 850.739 121.073 849.31 122.274L837.285 132.383C836.832 132.763 836.571 133.323 836.571 133.914V135.643C836.571 136.747 837.467 137.643 838.571 137.643H857.714ZM836 140.214C834.895 140.214 834 139.319 834 138.214V132.716C834 132.125 834.261 131.565 834.713 131.185L842.255 124.846C843.683 123.645 842.834 121.315 840.968 121.315H836C834.895 121.315 834 120.419 834 119.315V113.929C834 112.824 834.895 111.929 836 111.929H860.286C861.39 111.929 862.286 112.824 862.286 113.929V119.427C862.286 120.017 862.025 120.578 861.572 120.958L854.066 127.266C852.637 128.466 853.487 130.797 855.353 130.797H860.286C861.39 130.797 862.286 131.692 862.286 132.797V138.214C862.286 139.319 861.39 140.214 860.286 140.214H836Z" fill="#18181B"/>
<path d="M837.214 160.55C837.214 159.445 838.11 158.55 839.214 158.55H845.235C845.662 158.55 846.078 158.413 846.422 158.159L857.17 150.23C858.49 149.256 860.357 150.198 860.357 151.839V151.929C860.357 152.538 860.08 153.114 859.603 153.493L852.529 159.129C851.52 159.933 851.525 161.468 852.539 162.265L859.594 167.817C860.076 168.196 860.357 168.775 860.357 169.389V169.565C860.357 171.207 858.489 172.149 857.169 171.174L846.39 163.216C846.046 162.962 845.63 162.825 845.202 162.825H839.214C838.11 162.825 837.214 161.929 837.214 160.825V160.55Z" fill="#18181B"/>
<path d="M862.929 153.168C862.929 153.777 862.651 154.353 862.175 154.732L856.671 159.116C855.663 159.92 855.667 161.455 856.681 162.252L862.165 166.569C862.647 166.948 862.929 167.527 862.929 168.14V174.66C862.929 176.301 861.061 177.244 859.741 176.269L845.544 165.787C845.2 165.533 844.784 165.396 844.356 165.396H836.643C835.538 165.396 834.643 164.501 834.643 163.396V157.978C834.643 156.874 835.538 155.978 836.643 155.978H844.389C844.817 155.978 845.233 155.841 845.577 155.587L859.741 145.137C861.062 144.163 862.929 145.106 862.929 146.747V153.168ZM837.214 160.825C837.214 161.929 838.11 162.825 839.214 162.825H845.203C845.63 162.825 846.046 162.962 846.39 163.216L857.169 171.174C858.49 172.149 860.357 171.206 860.357 169.565V169.389C860.357 168.776 860.076 168.196 859.594 167.817L852.539 162.265C851.525 161.468 851.52 159.933 852.529 159.129L859.603 153.493C860.08 153.114 860.357 152.538 860.357 151.929V151.839C860.357 150.198 858.49 149.256 857.17 150.23L846.422 158.159C846.078 158.413 845.662 158.55 845.235 158.55H839.214C838.11 158.55 837.214 159.445 837.214 160.55V160.825Z" fill="#18181B"/>
<path d="M837.214 185.286C837.214 184.181 838.11 183.286 839.214 183.286H858.389C859.494 183.286 860.389 184.181 860.389 185.286V185.529C860.389 186.633 859.494 187.529 858.389 187.529H843.489C842.385 187.529 841.489 188.424 841.489 189.529V204.429C841.489 205.533 840.594 206.429 839.489 206.429H839.214C838.11 206.429 837.214 205.533 837.214 204.429V185.286Z" fill="#18181B"/>
<path d="M839.49 206.429C840.594 206.429 841.49 205.533 841.49 204.429V189.529C841.49 188.424 842.385 187.529 843.49 187.529H858.389C859.494 187.529 860.389 186.634 860.389 185.529V185.286C860.389 184.181 859.494 183.286 858.389 183.286H839.214C838.11 183.286 837.214 184.181 837.214 185.286V204.429C837.214 205.533 838.11 206.429 839.214 206.429H839.49ZM846.061 190.1C844.956 190.1 844.061 190.996 844.061 192.1V207C844.061 208.105 843.166 209 842.061 209H836.643C835.538 209 834.643 208.105 834.643 207V182.714C834.643 181.61 835.538 180.714 836.643 180.714H860.961C862.065 180.714 862.961 181.61 862.961 182.714V188.1C862.961 189.205 862.065 190.1 860.961 190.1H846.061Z" fill="#18181B"/>
<path d="M834.214 72.0175C834.214 71.304 834.594 70.6445 835.212 70.2868L854.355 59.1999C855.688 58.4277 857.357 59.3898 857.357 60.9306V61.254C857.357 61.9698 856.975 62.631 856.354 62.9878L842.368 71.03C841.031 71.7984 841.03 73.726 842.366 74.4962L856.356 82.566C856.976 82.9232 857.357 83.5836 857.357 84.2985V84.5915C857.357 86.1323 855.688 87.0944 854.355 86.3222L835.212 75.2353C834.594 74.8777 834.214 74.2182 834.214 73.5046V72.0175Z" fill="#00D492"/>
<path d="M859.929 62.7414C859.929 63.4572 859.546 64.1184 858.926 64.4752L847.521 71.033C846.184 71.8014 846.183 73.729 847.518 74.4993L858.928 81.0808C859.547 81.4379 859.929 82.0984 859.929 82.8132V89.0523C859.929 90.5932 858.26 91.5553 856.926 90.783L832.641 76.7175C832.023 76.3599 831.643 75.7004 831.643 74.9868V70.5351C831.643 69.8215 832.023 69.162 832.641 68.8044L856.926 54.7389C858.26 53.9666 859.929 54.9287 859.929 56.4696V62.7414ZM857.357 60.9306C857.357 59.3898 855.688 58.4277 854.355 59.1999L835.212 70.2866C834.594 70.6442 834.214 71.3037 834.214 72.0173V73.5046C834.214 74.2182 834.594 74.8777 835.212 75.2353L854.355 86.322C855.688 87.0942 857.357 86.1321 857.357 84.5913V84.2986C857.357 83.5838 856.976 82.9233 856.356 82.5661L842.365 74.4961C841.03 73.7259 841.031 71.7983 842.368 71.0299L856.354 62.988C856.975 62.6312 857.357 61.9699 857.357 61.2541V60.9306Z" fill="#222226"/>
<path d="M834.214 98.0717C834.214 96.9671 835.11 96.0717 836.214 96.0717H855.357C856.462 96.0717 857.357 96.9671 857.357 98.0717V98.2824C857.357 99.387 856.462 100.282 855.357 100.282H836.214C835.11 100.282 834.214 99.387 834.214 98.2824V98.0717Z" fill="#00D492"/>
<path d="M855.357 100.283C856.462 100.283 857.357 99.3872 857.357 98.2826V98.0714C857.357 96.9669 856.462 96.0714 855.357 96.0714H836.214C835.11 96.0714 834.214 96.9669 834.214 98.0714V98.2826C834.214 99.3872 835.11 100.283 836.214 100.283H855.357ZM833.643 102.854C832.538 102.854 831.643 101.959 831.643 100.854V95.5C831.643 94.3954 832.538 93.5 833.643 93.5H857.929C859.033 93.5 859.929 94.3954 859.929 95.5V100.854C859.929 101.959 859.033 102.854 857.929 102.854H833.643Z" fill="#222226"/>
<path d="M833.571 113.5C833.571 112.396 834.467 111.5 835.571 111.5H854.714C855.819 111.5 856.714 112.396 856.714 113.5V115.229C856.714 115.82 856.453 116.38 856.001 116.76L844.009 126.837C842.58 128.038 843.429 130.368 845.296 130.368H854.714C855.819 130.368 856.714 131.263 856.714 132.368V132.643C856.714 133.748 855.819 134.643 854.714 134.643H835.571C834.467 134.643 833.571 133.748 833.571 132.643V130.914C833.571 130.323 833.832 129.763 834.284 129.383L846.31 119.274C847.739 118.073 846.89 115.743 845.023 115.743H835.571C834.467 115.743 833.571 114.848 833.571 113.743V113.5Z" fill="#00D492"/>
<path d="M854.714 134.643C855.819 134.643 856.714 133.747 856.714 132.643V132.368C856.714 131.264 855.819 130.368 854.714 130.368H845.296C843.43 130.368 842.58 128.038 844.009 126.837L856.001 116.76C856.453 116.38 856.714 115.82 856.714 115.229V113.5C856.714 112.395 855.819 111.5 854.714 111.5H835.571C834.467 111.5 833.571 112.395 833.571 113.5V113.743C833.571 114.848 834.467 115.743 835.571 115.743H845.023C846.889 115.743 847.739 118.073 846.31 119.274L834.285 129.383C833.832 129.763 833.571 130.323 833.571 130.914V132.643C833.571 133.747 834.467 134.643 835.571 134.643H854.714ZM833 137.214C831.895 137.214 831 136.319 831 135.214V129.716C831 129.125 831.261 128.565 831.713 128.185L839.255 121.846C840.683 120.645 839.834 118.315 837.968 118.315H833C831.895 118.315 831 117.419 831 116.315V110.929C831 109.824 831.895 108.929 833 108.929H857.286C858.39 108.929 859.286 109.824 859.286 110.929V116.427C859.286 117.017 859.025 117.578 858.572 117.958L851.066 124.266C849.637 125.466 850.487 127.797 852.353 127.797H857.286C858.39 127.797 859.286 128.692 859.286 129.797V135.214C859.286 136.319 858.39 137.214 857.286 137.214H833Z" fill="#222226"/>
<path d="M834.214 157.55C834.214 156.445 835.11 155.55 836.214 155.55H842.235C842.662 155.55 843.078 155.413 843.422 155.159L854.17 147.23C855.49 146.256 857.357 147.198 857.357 148.839V148.929C857.357 149.538 857.08 150.114 856.603 150.493L849.529 156.129C848.52 156.933 848.525 158.468 849.539 159.265L856.594 164.817C857.076 165.196 857.357 165.775 857.357 166.389V166.565C857.357 168.207 855.489 169.149 854.169 168.174L843.39 160.216C843.046 159.962 842.63 159.825 842.202 159.825H836.214C835.11 159.825 834.214 158.929 834.214 157.825V157.55Z" fill="#00D492"/>
<path d="M859.929 150.168C859.929 150.777 859.651 151.353 859.175 151.732L853.671 156.116C852.663 156.92 852.667 158.455 853.681 159.252L859.165 163.569C859.647 163.948 859.929 164.527 859.929 165.14V171.66C859.929 173.301 858.061 174.244 856.741 173.269L842.544 162.787C842.2 162.533 841.784 162.396 841.356 162.396H833.643C832.538 162.396 831.643 161.501 831.643 160.396V154.978C831.643 153.874 832.538 152.978 833.643 152.978H841.389C841.817 152.978 842.233 152.841 842.577 152.587L856.741 142.137C858.062 141.163 859.929 142.106 859.929 143.747V150.168ZM834.214 157.825C834.214 158.929 835.11 159.825 836.214 159.825H842.203C842.63 159.825 843.046 159.962 843.39 160.216L854.169 168.174C855.49 169.149 857.357 168.206 857.357 166.565V166.389C857.357 165.776 857.076 165.196 856.594 164.817L849.539 159.265C848.525 158.468 848.52 156.933 849.529 156.129L856.603 150.493C857.08 150.114 857.357 149.538 857.357 148.929V148.839C857.357 147.198 855.49 146.256 854.17 147.23L843.422 155.159C843.078 155.413 842.662 155.55 842.235 155.55H836.214C835.11 155.55 834.214 156.445 834.214 157.55V157.825Z" fill="#222226"/>
<path d="M834.214 182.286C834.214 181.181 835.11 180.286 836.214 180.286H855.389C856.494 180.286 857.389 181.181 857.389 182.286V182.529C857.389 183.633 856.494 184.529 855.389 184.529H840.489C839.385 184.529 838.489 185.424 838.489 186.529V201.429C838.489 202.533 837.594 203.429 836.489 203.429H836.214C835.11 203.429 834.214 202.533 834.214 201.429V182.286Z" fill="#00D492"/>
<path d="M836.49 203.429C837.594 203.429 838.49 202.533 838.49 201.429V186.529C838.49 185.424 839.385 184.529 840.49 184.529H855.389C856.494 184.529 857.389 183.634 857.389 182.529V182.286C857.389 181.181 856.494 180.286 855.389 180.286H836.214C835.11 180.286 834.214 181.181 834.214 182.286V201.429C834.214 202.533 835.11 203.429 836.214 203.429H836.49ZM843.061 187.1C841.956 187.1 841.061 187.996 841.061 189.1V204C841.061 205.105 840.166 206 839.061 206H833.643C832.538 206 831.643 205.105 831.643 204V179.714C831.643 178.61 832.538 177.714 833.643 177.714H857.961C859.065 177.714 859.961 178.61 859.961 179.714V185.1C859.961 186.205 859.065 187.1 857.961 187.1H843.061Z" fill="#222226"/>
<circle cx="778" cy="57" r="2" fill="#222226"/>
<circle cx="786" cy="57" r="2" fill="#222226"/>
<circle cx="794" cy="57" r="2" fill="#222226"/>
<circle cx="802" cy="57" r="2" fill="#222226"/>
<circle cx="810" cy="57" r="2" fill="#222226"/>
<circle cx="818" cy="57" r="2" fill="#222226"/>
<circle cx="762" cy="217" r="2" fill="#222226"/>
<circle cx="770" cy="217" r="2" fill="#222226"/>
<circle cx="778" cy="217" r="2" fill="#222226"/>
<circle cx="786" cy="217" r="2" fill="#222226"/>
<circle cx="794" cy="217" r="2" fill="#222226"/>
<circle cx="802" cy="217" r="2" fill="#222226"/>
<circle cx="786" cy="49" r="2" fill="#222226"/>
<circle cx="794" cy="49" r="2" fill="#222226"/>
<circle cx="802" cy="49" r="2" fill="#222226"/>
<circle cx="810" cy="49" r="2" fill="#222226"/>
<circle cx="818" cy="49" r="2" fill="#222226"/>
<circle cx="762" cy="225" r="2" fill="#222226"/>
<circle cx="770" cy="225" r="2" fill="#222226"/>
<circle cx="778" cy="225" r="2" fill="#222226"/>
<circle cx="786" cy="225" r="2" fill="#222226"/>
<circle cx="794" cy="225" r="2" fill="#222226"/>
<circle cx="770" cy="65" r="2" fill="#222226"/>
<circle cx="778" cy="65" r="2" fill="#222226"/>
<circle cx="786" cy="65" r="2" fill="#222226"/>
<circle cx="794" cy="65" r="2" fill="#222226"/>
<circle cx="802" cy="65" r="2" fill="#222226"/>
<circle cx="810" cy="65" r="2" fill="#222226"/>
<circle cx="818" cy="65" r="2" fill="#222226"/>
<circle cx="762" cy="209" r="2" fill="#222226"/>
<circle cx="770" cy="209" r="2" fill="#222226"/>
<circle cx="778" cy="209" r="2" fill="#222226"/>
<circle cx="786" cy="209" r="2" fill="#222226"/>
<circle cx="794" cy="209" r="2" fill="#222226"/>
<circle cx="802" cy="209" r="2" fill="#222226"/>
<circle cx="810" cy="209" r="2" fill="#222226"/>
<circle cx="762" cy="73" r="2" fill="#222226"/>
<circle cx="770" cy="73" r="2" fill="#222226"/>
<circle cx="778" cy="73" r="2" fill="#222226"/>
<circle cx="786" cy="73" r="2" fill="#222226"/>
<circle cx="794" cy="73" r="2" fill="#222226"/>
<circle cx="802" cy="73" r="2" fill="#222226"/>
<circle cx="810" cy="73" r="2" fill="#222226"/>
<circle cx="818" cy="73" r="2" fill="#222226"/>
<circle cx="762" cy="81" r="2" fill="#222226"/>
<circle cx="770" cy="81" r="2" fill="#222226"/>
<circle cx="778" cy="81" r="2" fill="#222226"/>
<circle cx="786" cy="81" r="2" fill="#222226"/>
<circle cx="794" cy="81" r="2" fill="#222226"/>
<circle cx="802" cy="81" r="2" fill="#222226"/>
<circle cx="810" cy="81" r="2" fill="#222226"/>
<circle cx="818" cy="81" r="2" fill="#222226"/>
<circle cx="762" cy="89" r="2" fill="#222226"/>
<circle cx="770" cy="89" r="2" fill="#222226"/>
<circle cx="778" cy="89" r="2" fill="#222226"/>
<circle cx="786" cy="89" r="2" fill="#222226"/>
<circle cx="794" cy="89" r="2" fill="#222226"/>
<circle cx="802" cy="89" r="2" fill="#222226"/>
<circle cx="810" cy="89" r="2" fill="#222226"/>
<circle cx="818" cy="89" r="2" fill="#222226"/>
<circle cx="762" cy="97" r="2" fill="#222226"/>
<circle cx="770" cy="97" r="2" fill="#222226"/>
<circle cx="778" cy="97" r="2" fill="#222226"/>
<circle cx="786" cy="97" r="2" fill="#222226"/>
<circle cx="794" cy="97" r="2" fill="#222226"/>
<circle cx="802" cy="97" r="2" fill="#222226"/>
<circle cx="810" cy="97" r="2" fill="#222226"/>
<circle cx="818" cy="97" r="2" fill="#222226"/>
<circle cx="762" cy="105" r="2" fill="#222226"/>
<circle cx="770" cy="105" r="2" fill="#222226"/>
<circle cx="778" cy="105" r="2" fill="#222226"/>
<circle cx="786" cy="105" r="2" fill="#222226"/>
<circle cx="794" cy="105" r="2" fill="#222226"/>
<circle cx="802" cy="105" r="2" fill="#222226"/>
<circle cx="810" cy="105" r="2" fill="#222226"/>
<circle cx="818" cy="105" r="2" fill="#222226"/>
<circle cx="762" cy="113" r="2" fill="#222226"/>
<circle cx="770" cy="113" r="2" fill="#222226"/>
<circle cx="778" cy="113" r="2" fill="#222226"/>
<circle cx="786" cy="113" r="2" fill="#222226"/>
<circle cx="794" cy="113" r="2" fill="#222226"/>
<circle cx="802" cy="113" r="2" fill="#222226"/>
<circle cx="810" cy="113" r="2" fill="#222226"/>
<circle cx="818" cy="113" r="2" fill="#222226"/>
<circle cx="762" cy="121" r="2" fill="#222226"/>
<circle cx="770" cy="121" r="2" fill="#222226"/>
<circle cx="778" cy="121" r="2" fill="#222226"/>
<circle cx="786" cy="121" r="2" fill="#222226"/>
<circle cx="794" cy="121" r="2" fill="#222226"/>
<circle cx="802" cy="121" r="2" fill="#222226"/>
<circle cx="810" cy="121" r="2" fill="#222226"/>
<circle cx="818" cy="121" r="2" fill="#222226"/>
<circle cx="762" cy="129" r="2" fill="#222226"/>
<circle cx="770" cy="129" r="2" fill="#222226"/>
<circle cx="778" cy="129" r="2" fill="#222226"/>
<circle cx="786" cy="129" r="2" fill="#222226"/>
<circle cx="794" cy="129" r="2" fill="#222226"/>
<circle cx="802" cy="129" r="2" fill="#222226"/>
<circle cx="810" cy="129" r="2" fill="#222226"/>
<circle cx="818" cy="129" r="2" fill="#222226"/>
<circle cx="762" cy="137" r="2" fill="#222226"/>
<circle cx="770" cy="137" r="2" fill="#222226"/>
<circle cx="778" cy="137" r="2" fill="#222226"/>
<circle cx="786" cy="137" r="2" fill="#222226"/>
<circle cx="794" cy="137" r="2" fill="#222226"/>
<circle cx="802" cy="137" r="2" fill="#222226"/>
<circle cx="810" cy="137" r="2" fill="#222226"/>
<circle cx="818" cy="137" r="2" fill="#222226"/>
<circle cx="762" cy="145" r="2" fill="#222226"/>
<circle cx="770" cy="145" r="2" fill="#222226"/>
<circle cx="778" cy="145" r="2" fill="#222226"/>
<circle cx="786" cy="145" r="2" fill="#222226"/>
<circle cx="794" cy="145" r="2" fill="#222226"/>
<circle cx="802" cy="145" r="2" fill="#222226"/>
<circle cx="810" cy="145" r="2" fill="#222226"/>
<circle cx="818" cy="145" r="2" fill="#222226"/>
<circle cx="762" cy="153" r="2" fill="#222226"/>
<circle cx="770" cy="153" r="2" fill="#222226"/>
<circle cx="778" cy="153" r="2" fill="#222226"/>
<circle cx="786" cy="153" r="2" fill="#222226"/>
<circle cx="794" cy="153" r="2" fill="#222226"/>
<circle cx="802" cy="153" r="2" fill="#222226"/>
<circle cx="810" cy="153" r="2" fill="#222226"/>
<circle cx="818" cy="153" r="2" fill="#222226"/>
<circle cx="762" cy="161" r="2" fill="#222226"/>
<circle cx="770" cy="161" r="2" fill="#222226"/>
<circle cx="778" cy="161" r="2" fill="#222226"/>
<circle cx="786" cy="161" r="2" fill="#222226"/>
<circle cx="794" cy="161" r="2" fill="#222226"/>
<circle cx="802" cy="161" r="2" fill="#222226"/>
<circle cx="810" cy="161" r="2" fill="#222226"/>
<circle cx="818" cy="161" r="2" fill="#222226"/>
<circle cx="762" cy="169" r="2" fill="#222226"/>
<circle cx="770" cy="169" r="2" fill="#222226"/>
<circle cx="778" cy="169" r="2" fill="#222226"/>
<circle cx="786" cy="169" r="2" fill="#222226"/>
<circle cx="794" cy="169" r="2" fill="#222226"/>
<circle cx="802" cy="169" r="2" fill="#222226"/>
<circle cx="810" cy="169" r="2" fill="#222226"/>
<circle cx="818" cy="169" r="2" fill="#222226"/>
<circle cx="762" cy="177" r="2" fill="#222226"/>
<circle cx="770" cy="177" r="2" fill="#222226"/>
<circle cx="778" cy="177" r="2" fill="#222226"/>
<circle cx="786" cy="177" r="2" fill="#222226"/>
<circle cx="794" cy="177" r="2" fill="#222226"/>
<circle cx="802" cy="177" r="2" fill="#222226"/>
<circle cx="810" cy="177" r="2" fill="#222226"/>
<circle cx="818" cy="177" r="2" fill="#222226"/>
<circle cx="762" cy="185" r="2" fill="#222226"/>
<circle cx="770" cy="185" r="2" fill="#222226"/>
<circle cx="778" cy="185" r="2" fill="#222226"/>
<circle cx="786" cy="185" r="2" fill="#222226"/>
<circle cx="794" cy="185" r="2" fill="#222226"/>
<circle cx="802" cy="185" r="2" fill="#222226"/>
<circle cx="810" cy="185" r="2" fill="#222226"/>
<circle cx="818" cy="185" r="2" fill="#222226"/>
<circle cx="762" cy="193" r="2" fill="#222226"/>
<circle cx="770" cy="193" r="2" fill="#222226"/>
<circle cx="778" cy="193" r="2" fill="#222226"/>
<circle cx="786" cy="193" r="2" fill="#222226"/>
<circle cx="794" cy="193" r="2" fill="#222226"/>
<circle cx="802" cy="193" r="2" fill="#222226"/>
<circle cx="810" cy="193" r="2" fill="#222226"/>
<circle cx="818" cy="193" r="2" fill="#222226"/>
<circle cx="762" cy="201" r="2" fill="#222226"/>
<circle cx="770" cy="201" r="2" fill="#222226"/>
<circle cx="778" cy="201" r="2" fill="#222226"/>
<circle cx="786" cy="201" r="2" fill="#222226"/>
<circle cx="794" cy="201" r="2" fill="#222226"/>
<circle cx="802" cy="201" r="2" fill="#222226"/>
<circle cx="810" cy="201" r="2" fill="#222226"/>
<circle cx="818" cy="201" r="2" fill="#222226"/>
<circle cx="777" cy="56" r="2" fill="#18181B"/>
<circle cx="785" cy="56" r="2" fill="#18181B"/>
<circle cx="793" cy="56" r="2" fill="#18181B"/>
<circle cx="801" cy="56" r="2" fill="#18181B"/>
<circle cx="809" cy="56" r="2" fill="#18181B"/>
<circle cx="817" cy="56" r="2" fill="#18181B"/>
<circle cx="761" cy="216" r="2" fill="#18181B"/>
<circle cx="769" cy="216" r="2" fill="#18181B"/>
<circle cx="777" cy="216" r="2" fill="#18181B"/>
<circle cx="785" cy="216" r="2" fill="#18181B"/>
<circle cx="793" cy="216" r="2" fill="#18181B"/>
<circle cx="801" cy="216" r="2" fill="#18181B"/>
<circle cx="785" cy="48" r="2" fill="#18181B"/>
<circle cx="793" cy="48" r="2" fill="#18181B"/>
<circle cx="801" cy="48" r="2" fill="#18181B"/>
<circle cx="809" cy="48" r="2" fill="#18181B"/>
<circle cx="817" cy="48" r="2" fill="#18181B"/>
<circle cx="761" cy="224" r="2" fill="#18181B"/>
<circle cx="769" cy="224" r="2" fill="#18181B"/>
<circle cx="777" cy="224" r="2" fill="#18181B"/>
<circle cx="785" cy="224" r="2" fill="#18181B"/>
<circle cx="793" cy="224" r="2" fill="#18181B"/>
<circle cx="769" cy="64" r="2" fill="#18181B"/>
<circle cx="777" cy="64" r="2" fill="#18181B"/>
<circle cx="785" cy="64" r="2" fill="#18181B"/>
<circle cx="793" cy="64" r="2" fill="#18181B"/>
<circle cx="801" cy="64" r="2" fill="#18181B"/>
<circle cx="809" cy="64" r="2" fill="#18181B"/>
<circle cx="817" cy="64" r="2" fill="#18181B"/>
<circle cx="761" cy="208" r="2" fill="#18181B"/>
<circle cx="769" cy="208" r="2" fill="#18181B"/>
<circle cx="777" cy="208" r="2" fill="#18181B"/>
<circle cx="785" cy="208" r="2" fill="#18181B"/>
<circle cx="793" cy="208" r="2" fill="#18181B"/>
<circle cx="801" cy="208" r="2" fill="#18181B"/>
<circle cx="809" cy="208" r="2" fill="#18181B"/>
<circle cx="761" cy="72" r="2" fill="#18181B"/>
<circle cx="769" cy="72" r="2" fill="#18181B"/>
<circle cx="777" cy="72" r="2" fill="#18181B"/>
<circle cx="785" cy="72" r="2" fill="#18181B"/>
<circle cx="793" cy="72" r="2" fill="#18181B"/>
<circle cx="801" cy="72" r="2" fill="#18181B"/>
<circle cx="809" cy="72" r="2" fill="#18181B"/>
<circle cx="817" cy="72" r="2" fill="#18181B"/>
<circle cx="761" cy="80" r="2" fill="#18181B"/>
<circle cx="769" cy="80" r="2" fill="#18181B"/>
<circle cx="777" cy="80" r="2" fill="#18181B"/>
<circle cx="785" cy="80" r="2" fill="#18181B"/>
<circle cx="793" cy="80" r="2" fill="#18181B"/>
<circle cx="801" cy="80" r="2" fill="#18181B"/>
<circle cx="809" cy="80" r="2" fill="#18181B"/>
<circle cx="817" cy="80" r="2" fill="#18181B"/>
<circle cx="761" cy="88" r="2" fill="#18181B"/>
<circle cx="769" cy="88" r="2" fill="#18181B"/>
<circle cx="777" cy="88" r="2" fill="#18181B"/>
<circle cx="785" cy="88" r="2" fill="#18181B"/>
<circle cx="793" cy="88" r="2" fill="#18181B"/>
<circle cx="801" cy="88" r="2" fill="#18181B"/>
<circle cx="809" cy="88" r="2" fill="#18181B"/>
<circle cx="817" cy="88" r="2" fill="#18181B"/>
<circle cx="761" cy="96" r="2" fill="#18181B"/>
<circle cx="769" cy="96" r="2" fill="#18181B"/>
<circle cx="777" cy="96" r="2" fill="#18181B"/>
<circle cx="785" cy="96" r="2" fill="#18181B"/>
<circle cx="793" cy="96" r="2" fill="#18181B"/>
<circle cx="801" cy="96" r="2" fill="#18181B"/>
<circle cx="809" cy="96" r="2" fill="#18181B"/>
<circle cx="817" cy="96" r="2" fill="#18181B"/>
<circle cx="761" cy="104" r="2" fill="#18181B"/>
<circle cx="769" cy="104" r="2" fill="#18181B"/>
<circle cx="777" cy="104" r="2" fill="#18181B"/>
<circle cx="785" cy="104" r="2" fill="#18181B"/>
<circle cx="793" cy="104" r="2" fill="#18181B"/>
<circle cx="801" cy="104" r="2" fill="#18181B"/>
<circle cx="809" cy="104" r="2" fill="#18181B"/>
<circle cx="817" cy="104" r="2" fill="#18181B"/>
<circle cx="761" cy="112" r="2" fill="#18181B"/>
<circle cx="769" cy="112" r="2" fill="#18181B"/>
<circle cx="777" cy="112" r="2" fill="#18181B"/>
<circle cx="785" cy="112" r="2" fill="#18181B"/>
<circle cx="793" cy="112" r="2" fill="#18181B"/>
<circle cx="801" cy="112" r="2" fill="#18181B"/>
<circle cx="809" cy="112" r="2" fill="#18181B"/>
<circle cx="817" cy="112" r="2" fill="#18181B"/>
<circle cx="761" cy="120" r="2" fill="#18181B"/>
<circle cx="769" cy="120" r="2" fill="#18181B"/>
<circle cx="777" cy="120" r="2" fill="#18181B"/>
<circle cx="785" cy="120" r="2" fill="#18181B"/>
<circle cx="793" cy="120" r="2" fill="#18181B"/>
<circle cx="801" cy="120" r="2" fill="#18181B"/>
<circle cx="809" cy="120" r="2" fill="#18181B"/>
<circle cx="817" cy="120" r="2" fill="#18181B"/>
<circle cx="761" cy="128" r="2" fill="#18181B"/>
<circle cx="769" cy="128" r="2" fill="#18181B"/>
<circle cx="777" cy="128" r="2" fill="#18181B"/>
<circle cx="785" cy="128" r="2" fill="#18181B"/>
<circle cx="793" cy="128" r="2" fill="#18181B"/>
<circle cx="801" cy="128" r="2" fill="#18181B"/>
<circle cx="809" cy="128" r="2" fill="#18181B"/>
<circle cx="817" cy="128" r="2" fill="#18181B"/>
<circle cx="761" cy="136" r="2" fill="#18181B"/>
<circle cx="769" cy="136" r="2" fill="#18181B"/>
<circle cx="777" cy="136" r="2" fill="#18181B"/>
<circle cx="785" cy="136" r="2" fill="#18181B"/>
<circle cx="793" cy="136" r="2" fill="#18181B"/>
<circle cx="801" cy="136" r="2" fill="#18181B"/>
<circle cx="809" cy="136" r="2" fill="#18181B"/>
<circle cx="817" cy="136" r="2" fill="#18181B"/>
<circle cx="761" cy="144" r="2" fill="#18181B"/>
<circle cx="769" cy="144" r="2" fill="#18181B"/>
<circle cx="777" cy="144" r="2" fill="#18181B"/>
<circle cx="785" cy="144" r="2" fill="#18181B"/>
<circle cx="793" cy="144" r="2" fill="#18181B"/>
<circle cx="801" cy="144" r="2" fill="#18181B"/>
<circle cx="809" cy="144" r="2" fill="#18181B"/>
<circle cx="817" cy="144" r="2" fill="#18181B"/>
<circle cx="761" cy="152" r="2" fill="#18181B"/>
<circle cx="769" cy="152" r="2" fill="#18181B"/>
<circle cx="777" cy="152" r="2" fill="#18181B"/>
<circle cx="785" cy="152" r="2" fill="#18181B"/>
<circle cx="793" cy="152" r="2" fill="#18181B"/>
<circle cx="801" cy="152" r="2" fill="#18181B"/>
<circle cx="809" cy="152" r="2" fill="#18181B"/>
<circle cx="817" cy="152" r="2" fill="#18181B"/>
<circle cx="761" cy="160" r="2" fill="#18181B"/>
<circle cx="769" cy="160" r="2" fill="#18181B"/>
<circle cx="777" cy="160" r="2" fill="#18181B"/>
<circle cx="785" cy="160" r="2" fill="#18181B"/>
<circle cx="793" cy="160" r="2" fill="#18181B"/>
<circle cx="801" cy="160" r="2" fill="#18181B"/>
<circle cx="809" cy="160" r="2" fill="#18181B"/>
<circle cx="817" cy="160" r="2" fill="#18181B"/>
<circle cx="761" cy="168" r="2" fill="#18181B"/>
<circle cx="769" cy="168" r="2" fill="#18181B"/>
<circle cx="777" cy="168" r="2" fill="#18181B"/>
<circle cx="785" cy="168" r="2" fill="#18181B"/>
<circle cx="793" cy="168" r="2" fill="#18181B"/>
<circle cx="801" cy="168" r="2" fill="#18181B"/>
<circle cx="809" cy="168" r="2" fill="#18181B"/>
<circle cx="817" cy="168" r="2" fill="#18181B"/>
<circle cx="761" cy="176" r="2" fill="#18181B"/>
<circle cx="769" cy="176" r="2" fill="#18181B"/>
<circle cx="777" cy="176" r="2" fill="#18181B"/>
<circle cx="785" cy="176" r="2" fill="#18181B"/>
<circle cx="793" cy="176" r="2" fill="#18181B"/>
<circle cx="801" cy="176" r="2" fill="#18181B"/>
<circle cx="809" cy="176" r="2" fill="#18181B"/>
<circle cx="817" cy="176" r="2" fill="#18181B"/>
<circle cx="761" cy="184" r="2" fill="#18181B"/>
<circle cx="769" cy="184" r="2" fill="#18181B"/>
<circle cx="777" cy="184" r="2" fill="#18181B"/>
<circle cx="785" cy="184" r="2" fill="#18181B"/>
<circle cx="793" cy="184" r="2" fill="#18181B"/>
<circle cx="801" cy="184" r="2" fill="#18181B"/>
<circle cx="809" cy="184" r="2" fill="#18181B"/>
<circle cx="817" cy="184" r="2" fill="#18181B"/>
<circle cx="761" cy="192" r="2" fill="#18181B"/>
<circle cx="769" cy="192" r="2" fill="#18181B"/>
<circle cx="777" cy="192" r="2" fill="#18181B"/>
<circle cx="785" cy="192" r="2" fill="#18181B"/>
<circle cx="793" cy="192" r="2" fill="#18181B"/>
<circle cx="801" cy="192" r="2" fill="#18181B"/>
<circle cx="809" cy="192" r="2" fill="#18181B"/>
<circle cx="817" cy="192" r="2" fill="#18181B"/>
<circle cx="761" cy="200" r="2" fill="#18181B"/>
<circle cx="769" cy="200" r="2" fill="#18181B"/>
<circle cx="777" cy="200" r="2" fill="#18181B"/>
<circle cx="785" cy="200" r="2" fill="#18181B"/>
<circle cx="793" cy="200" r="2" fill="#18181B"/>
<circle cx="801" cy="200" r="2" fill="#18181B"/>
<circle cx="809" cy="200" r="2" fill="#18181B"/>
<circle cx="817" cy="200" r="2" fill="#18181B"/>
<path d="M479.5 508.593L450 536.5H493C499.091 535.293 501.606 533.361 504 527L505.5 483L479.5 508.593Z" fill="#18181B"/>
<mask id="path-426-inside-1_14_172" fill="white">
<rect x="101" y="444" width="38" height="38" rx="3"/>
</mask>
<rect x="101" y="444" width="38" height="38" rx="3" stroke="#222226" stroke-width="8" mask="url(#path-426-inside-1_14_172)"/>
<path d="M91.6172 488.917C91.9699 488.254 92.882 488.213 93.3047 488.793L93.3828 488.917L108.74 517.78C109.094 518.446 108.612 519.25 107.857 519.25H77.1426C76.4353 519.25 75.9667 518.543 76.2031 517.906L76.2598 517.78L91.6172 488.917Z" stroke="#222226" stroke-width="4"/>
<circle cx="64" cy="472" r="19" stroke="#222226" stroke-width="4"/>
<mask id="path-429-inside-2_14_172" fill="white">
<rect x="102" y="447" width="38" height="38" rx="3"/>
</mask>
<rect x="102" y="447" width="38" height="38" rx="3" stroke="#18181B" stroke-width="8" mask="url(#path-429-inside-2_14_172)"/>
<path d="M92.6172 491.917C92.9699 491.254 93.882 491.213 94.3047 491.793L94.3828 491.917L109.74 520.78C110.094 521.446 109.612 522.25 108.857 522.25H78.1426C77.4353 522.25 76.9667 521.543 77.2031 520.906L77.2598 520.78L92.6172 491.917Z" stroke="#18181B" stroke-width="4"/>
<circle cx="65" cy="475" r="19" stroke="#18181B" stroke-width="4"/>
<mask id="path-432-inside-3_14_172" fill="white">
<rect x="100" y="440" width="38" height="38" rx="3"/>
</mask>
<rect x="100" y="440" width="38" height="38" rx="3" stroke="#00D492" stroke-width="8" mask="url(#path-432-inside-3_14_172)"/>
<path d="M90.6172 484.917C90.9699 484.254 91.882 484.213 92.3047 484.793L92.3828 484.917L107.74 513.78C108.094 514.446 107.612 515.25 106.857 515.25H76.1426C75.4353 515.25 74.9667 514.543 75.2031 513.906L75.2598 513.78L90.6172 484.917Z" stroke="#00D492" stroke-width="4"/>
<circle cx="63" cy="468" r="19" stroke="#00D492" stroke-width="4"/>
<circle cx="127" cy="495" r="2" fill="#18181B"/>
<circle cx="135" cy="495" r="2" fill="#18181B"/>
<circle cx="143" cy="495" r="2" fill="#18181B"/>
<circle cx="151" cy="495" r="2" fill="#18181B"/>
<circle cx="127" cy="503" r="2" fill="#18181B"/>
<circle cx="135" cy="503" r="2" fill="#18181B"/>
<circle cx="143" cy="503" r="2" fill="#18181B"/>
<circle cx="151" cy="503" r="2" fill="#18181B"/>
<circle cx="159" cy="503" r="2" fill="#18181B"/>
<circle cx="127" cy="511" r="2" fill="#18181B"/>
<circle cx="135" cy="511" r="2" fill="#18181B"/>
<circle cx="143" cy="511" r="2" fill="#18181B"/>
<circle cx="151" cy="511" r="2" fill="#18181B"/>
<circle cx="159" cy="511" r="2" fill="#18181B"/>
<circle cx="127" cy="519" r="2" fill="#18181B"/>
<circle cx="135" cy="519" r="2" fill="#18181B"/>
<circle cx="143" cy="519" r="2" fill="#18181B"/>
<circle cx="151" cy="519" r="2" fill="#18181B"/>
<circle cx="159" cy="519" r="2" fill="#18181B"/>
<circle cx="135" cy="527" r="2" fill="#18181B"/>
<circle cx="143" cy="527" r="2" fill="#18181B"/>
<circle cx="151" cy="527" r="2" fill="#18181B"/>
<circle cx="159" cy="527" r="2" fill="#18181B"/>
<circle cx="125" cy="493" r="2" fill="#00D492"/>
<circle cx="133" cy="493" r="2" fill="#00D492"/>
<circle cx="141" cy="493" r="2" fill="#00D492"/>
<circle cx="149" cy="493" r="2" fill="#00D492"/>
<circle cx="125" cy="501" r="2" fill="#00D492"/>
<circle cx="133" cy="501" r="2" fill="#00D492"/>
<circle cx="141" cy="501" r="2" fill="#00D492"/>
<circle cx="149" cy="501" r="2" fill="#00D492"/>
<circle cx="157" cy="501" r="2" fill="#00D492"/>
<circle cx="125" cy="509" r="2" fill="#00D492"/>
<circle cx="133" cy="509" r="2" fill="#00D492"/>
<circle cx="141" cy="509" r="2" fill="#00D492"/>
<circle cx="149" cy="509" r="2" fill="#00D492"/>
<circle cx="157" cy="509" r="2" fill="#00D492"/>
<circle cx="125" cy="517" r="2" fill="#00D492"/>
<circle cx="133" cy="517" r="2" fill="#00D492"/>
<circle cx="141" cy="517" r="2" fill="#00D492"/>
<circle cx="149" cy="517" r="2" fill="#00D492"/>
<circle cx="157" cy="517" r="2" fill="#00D492"/>
<circle cx="133" cy="525" r="2" fill="#00D492"/>
<circle cx="141" cy="525" r="2" fill="#00D492"/>
<circle cx="149" cy="525" r="2" fill="#00D492"/>
<circle cx="157" cy="525" r="2" fill="#00D492"/>
<circle cx="531" cy="522" r="8" fill="#18181B"/>
<circle cx="854" cy="522" r="8" fill="#18181B"/>
<circle cx="529" cy="520" r="6.5" fill="#00D492" stroke="#222226" stroke-width="3"/>
<circle cx="852" cy="520" r="6.5" fill="#00D492" stroke="#222226" stroke-width="3"/>
<rect x="214" y="28" width="13" height="4" fill="#3F3F46"/>
</svg>
