<svg width="237" height="418" viewBox="0 0 237 418" fill="none" xmlns="http://www.w3.org/2000/svg">
<rect x="131.341" y="279.274" width="56.2144" height="20.2693" rx="4" transform="rotate(126.292 131.341 279.274)" fill="#18181B"/>
<rect x="155.461" y="122.963" width="161.869" height="19.8395" rx="2" transform="rotate(99.2703 155.461 122.963)" fill="#18181B"/>
<rect x="180.016" y="65.3599" width="70.2321" height="19.5744" rx="2" transform="rotate(112.523 180.016 65.3599)" fill="#18181B"/>
<path d="M167.543 74.4357C166.439 75.0376 165.06 74.4837 164.679 73.2856L154.782 42.1456C154.27 40.5341 155.864 39.0537 157.433 39.6839L196.018 55.1819C197.587 55.8121 197.715 57.9842 196.23 58.7937L167.543 74.4357Z" fill="#18181B"/>
<rect x="177.41" y="67.3849" width="67.3427" height="16.1869" rx="2" transform="rotate(112.52 177.41 67.3849)" fill="#18181B"/>
<rect x="153.659" y="122.669" width="161.688" height="16.1869" rx="2" transform="rotate(99.2703 153.659 122.669)" fill="#18181B"/>
<rect x="128.958" y="279.144" width="55.1341" height="16.1869" rx="2" transform="rotate(126.292 128.958 279.144)" fill="#18181B"/>
<rect x="150.202" y="125.489" width="151.934" height="3.40537" transform="rotate(99.2703 150.202 125.489)" fill="#18181B"/>
<rect x="125.731" y="275.412" width="55.9822" height="3.40537" transform="rotate(125.467 125.731 275.412)" fill="#18181B"/>
<rect x="170.093" y="67.0475" width="3.46863" height="62.4353" transform="rotate(21.8832 170.093 67.0475)" fill="#18181B"/>
<rect x="164.369" y="16.1547" width="46.2484" height="27.749" rx="1" transform="rotate(21.8832 164.369 16.1547)" fill="#18181B"/>
<rect x="160.931" y="18.5115" width="50.8732" height="8.09347" transform="rotate(21.8832 160.931 18.5115)" fill="#18181B"/>
<rect x="162.161" y="58.8774" width="18.4994" height="4.62484" rx="2.31242" transform="rotate(21.8832 162.161 58.8774)" fill="#18181B"/>
<rect x="186.882" y="37.6571" width="10.4059" height="16.1869" transform="rotate(21.8832 186.882 37.6571)" fill="#18181B"/>
<rect x="191.192" y="26.9281" width="10.4059" height="3.46863" transform="rotate(21.8832 191.192 26.9281)" fill="#18181B"/>
<rect x="181.518" y="35.5024" width="3.46863" height="16.1869" transform="rotate(21.8832 181.518 35.5024)" fill="#18181B"/>
<rect x="185.827" y="24.7735" width="3.46863" height="3.46863" transform="rotate(21.8832 185.827 24.7735)" fill="#18181B"/>
<rect x="102.603" y="319.835" width="23.7981" height="21.9604" rx="2" transform="rotate(126.292 102.603 319.835)" fill="#18181B"/>
<rect x="102.458" y="324.011" width="5.22707" height="26.2902" rx="1" transform="rotate(126.292 102.458 324.011)" fill="#18181B"/>
<rect x="96.7902" y="316.034" width="17.2997" height="3.40537" transform="rotate(125.467 96.7902 316.034)" fill="#18181B"/>
<rect x="68.4715" y="372.214" width="37.4975" height="36.283" rx="2" transform="rotate(126.292 68.4715 372.214)" fill="#18181B"/>
<rect x="96.4367" y="383.369" width="5.50133" height="56.5571" rx="2" transform="rotate(126.292 96.4367 383.369)" fill="#18181B"/>
<rect x="96.5311" y="334.09" width="72.0419" height="29.5183" rx="2" transform="rotate(126.292 96.5311 334.09)" fill="#18181B"/>
<rect x="94.0167" y="334.044" width="70.5902" height="25.4112" rx="2" transform="rotate(126.292 94.0167 334.044)" fill="#18181B"/>
<rect x="94.8292" y="383.598" width="3.23028" height="55.3965" rx="1.61514" transform="rotate(126.292 94.8292 383.598)" fill="#18181B"/>
<rect x="66.4886" y="371.53" width="34.7401" height="31.7615" rx="2" transform="rotate(126.292 66.4886 371.53)" fill="#18181B"/>
<rect x="40.1225" y="365.967" width="19.1682" height="3.39099" rx="1.69549" transform="rotate(126.292 40.1225 365.967)" fill="#18181B"/>
<rect x="47.7901" y="387.646" width="6.27207" height="3.39099" rx="1.69549" transform="rotate(126.292 47.7901 387.646)" fill="#18181B"/>
<circle cx="76.9575" cy="336.152" r="5.78105" transform="rotate(21.8832 76.9575 336.152)" fill="#18181B"/>
<circle cx="63.4051" cy="354.382" r="5.78105" transform="rotate(21.8832 63.4051 354.382)" fill="#18181B"/>
<circle cx="49.8528" cy="372.613" r="5.78105" transform="rotate(21.8832 49.8528 372.613)" fill="#18181B"/>
<rect x="126.341" y="266.182" width="56.2144" height="20.2693" rx="4" transform="rotate(126.292 126.341 266.182)" fill="#797982"/>
<rect x="150.461" y="109.871" width="161.869" height="19.8395" rx="2" transform="rotate(99.2703 150.461 109.871)" fill="#797982"/>
<rect x="175.016" y="52.2677" width="70.2321" height="19.5744" rx="2" transform="rotate(112.523 175.016 52.2677)" fill="#797982"/>
<path d="M162.543 61.3435C161.439 61.9454 160.06 61.3915 159.679 60.1934L149.782 29.0534C149.27 27.4419 150.864 25.9615 152.433 26.5917L191.018 42.0897C192.587 42.7199 192.715 44.8921 191.23 45.7015L162.543 61.3435Z" fill="#222226"/>
<rect x="172.41" y="54.2928" width="67.3427" height="16.1869" rx="2" transform="rotate(112.52 172.41 54.2928)" fill="#3F3F46"/>
<rect x="148.659" y="109.577" width="161.688" height="16.1869" rx="2" transform="rotate(99.2703 148.659 109.577)" fill="#3F3F46"/>
<rect x="123.959" y="266.052" width="55.1341" height="16.1869" rx="2" transform="rotate(126.292 123.959 266.052)" fill="#3F3F46"/>
<rect x="139.415" y="107.973" width="158.751" height="3.40537" rx="1.70268" transform="rotate(99.0139 139.415 107.973)" fill="#797982"/>
<rect x="115.107" y="263.016" width="51.298" height="3.40537" transform="rotate(126.29 115.107 263.016)" fill="#797982"/>
<rect x="159.27" y="51" width="3.46863" height="62.4353" transform="rotate(21.8832 159.27 51)" fill="#797982"/>
<rect x="159.369" y="3.06248" width="46.2484" height="27.749" rx="1" transform="rotate(21.8832 159.369 3.06248)" fill="#3F3F46"/>
<rect x="155.931" y="5.41931" width="50.8732" height="8.09347" transform="rotate(21.8832 155.931 5.41931)" fill="#222226"/>
<rect x="157.161" y="45.7852" width="18.4994" height="4.62484" rx="2.31242" transform="rotate(21.8832 157.161 45.7852)" fill="#222226"/>
<rect x="165.397" y="17.8837" width="10.4059" height="16.1869" transform="rotate(21.8832 165.397 17.8837)" fill="#82828C"/>
<rect x="169.707" y="7.15466" width="10.4059" height="3.46863" transform="rotate(21.8832 169.707 7.15466)" fill="#82828C"/>
<rect x="160.033" y="15.729" width="3.46863" height="16.1869" transform="rotate(21.8832 160.033 15.729)" fill="#797982"/>
<rect x="164.342" y="4.99998" width="3.46863" height="3.46863" transform="rotate(21.8832 164.342 4.99998)" fill="#797982"/>
<rect x="97.603" y="306.743" width="23.7981" height="21.9604" rx="2" transform="rotate(126.292 97.603 306.743)" fill="#797982"/>
<rect x="97.4579" y="310.919" width="5.22707" height="26.2902" rx="1" transform="rotate(126.292 97.4579 310.919)" fill="#CECECF"/>
<rect x="88.0751" y="299.606" width="17.7541" height="3.40537" transform="rotate(125.467 88.0751 299.606)" fill="#F8F8F8" fill-opacity="0.4"/>
<rect x="63.4716" y="359.122" width="37.4975" height="36.283" rx="2" transform="rotate(126.292 63.4716 359.122)" fill="#00D492"/>
<rect x="91.4368" y="370.277" width="5.50133" height="56.5571" rx="2" transform="rotate(126.292 91.4368 370.277)" fill="#00D492"/>
<rect x="91.5312" y="320.998" width="72.0419" height="29.5183" rx="2" transform="rotate(126.292 91.5312 320.998)" fill="#00D492"/>
<rect x="89.0167" y="320.952" width="70.5902" height="25.4112" rx="2" transform="rotate(126.292 89.0167 320.952)" fill="#18181B"/>
<rect x="89.8292" y="370.505" width="3.23028" height="55.3965" rx="1.61514" transform="rotate(126.292 89.8292 370.505)" fill="#18181B"/>
<rect x="61.4887" y="358.438" width="34.7401" height="31.7615" rx="2" transform="rotate(126.292 61.4887 358.438)" fill="#18181B"/>
<rect x="35.1226" y="352.875" width="19.1682" height="3.39099" rx="1.69549" transform="rotate(126.292 35.1226 352.875)" fill="#004F3B"/>
<rect x="42.7901" y="374.553" width="6.27207" height="3.39099" rx="1.69549" transform="rotate(126.292 42.7901 374.553)" fill="#004F3B"/>
<circle cx="71.9575" cy="323.06" r="5.78105" transform="rotate(21.8832 71.9575 323.06)" fill="#797982"/>
<circle cx="58.4052" cy="341.29" r="5.78105" transform="rotate(21.8832 58.4052 341.29)" fill="#797982"/>
<circle cx="44.8529" cy="359.521" r="5.78105" transform="rotate(21.8832 44.8529 359.521)" fill="#797982"/>
</svg>
