<svg width="37" height="26" viewBox="0 0 37 26" fill="none" xmlns="http://www.w3.org/2000/svg">
<path d="M14.75 15.1651C13.0833 14.2028 13.0833 11.7972 14.75 10.8349L26.75 3.90673C28.4167 2.94448 30.5 4.14729 30.5 6.0718L30.5 19.9282C30.5 21.8527 28.4167 23.0555 26.75 22.0933L14.75 15.1651Z" fill="#00D492"/>
<path d="M3.75 15.1651C2.08333 14.2028 2.08333 11.7972 3.75 10.8349L15.75 3.90673C17.4167 2.94448 19.5 4.14729 19.5 6.0718L19.5 19.9282C19.5 21.8527 17.4167 23.0555 15.75 22.0933L3.75 15.1651Z" fill="#00D492"/>
<path d="M17 14.7321C15.6667 13.9623 15.6667 12.0377 17 11.2679L26 6.0718C27.3333 5.302 29 6.26425 29 7.80385L29 18.1962C29 19.7358 27.3333 20.698 26 19.9282L17 14.7321Z" fill="#00D492"/>
<path d="M6 14.7321C4.66667 13.9623 4.66667 12.0377 6 11.2679L15 6.0718C16.3333 5.302 18 6.26425 18 7.80385L18 18.1962C18 19.7358 16.3333 20.698 15 19.9282L6 14.7321Z" fill="#00D492"/>
</svg>
