<svg width="224" height="404" viewBox="0 0 224 404" fill="none" xmlns="http://www.w3.org/2000/svg">
<rect x="122.341" y="265.274" width="56.2144" height="20.2693" rx="4" transform="rotate(126.292 122.341 265.274)" fill="#797982"/>
<rect x="146.461" y="108.963" width="161.869" height="19.8395" rx="2" transform="rotate(99.2703 146.461 108.963)" fill="#797982"/>
<rect x="171.016" y="51.3599" width="70.2321" height="19.5744" rx="2" transform="rotate(112.523 171.016 51.3599)" fill="#797982"/>
<path d="M158.543 60.4357C157.439 61.0376 156.06 60.4837 155.679 59.2856L145.782 28.1456C145.27 26.5341 146.864 25.0537 148.433 25.6839L187.019 41.1819C188.588 41.8121 188.715 43.9842 187.231 44.7937L158.543 60.4357Z" fill="#222226"/>
<rect x="168.41" y="53.3849" width="67.3427" height="16.1869" rx="2" transform="rotate(112.52 168.41 53.3849)" fill="#3F3F46"/>
<rect x="144.659" y="108.669" width="161.688" height="16.1869" rx="2" transform="rotate(99.2703 144.659 108.669)" fill="#3F3F46"/>
<rect x="119.959" y="265.144" width="55.1341" height="16.1869" rx="2" transform="rotate(126.292 119.959 265.144)" fill="#3F3F46"/>
<rect x="141.203" y="111.489" width="151.934" height="3.40537" transform="rotate(99.2703 141.203 111.489)" fill="#797982"/>
<rect x="116.731" y="261.412" width="55.9822" height="3.40537" transform="rotate(125.467 116.731 261.412)" fill="#797982"/>
<rect x="161.094" y="53.0475" width="3.46863" height="62.4353" transform="rotate(21.8832 161.094 53.0475)" fill="#797982"/>
<rect x="155.369" y="2.15469" width="46.2484" height="27.749" rx="1" transform="rotate(21.8832 155.369 2.15469)" fill="#3F3F46"/>
<rect x="151.931" y="4.51152" width="50.8732" height="8.09347" transform="rotate(21.8832 151.931 4.51152)" fill="#222226"/>
<rect x="153.161" y="44.8774" width="18.4994" height="4.62484" rx="2.31242" transform="rotate(21.8832 153.161 44.8774)" fill="#222226"/>
<rect x="177.883" y="23.6571" width="10.4059" height="16.1869" transform="rotate(21.8832 177.883 23.6571)" fill="#82828C"/>
<rect x="182.192" y="12.9281" width="10.4059" height="3.46863" transform="rotate(21.8832 182.192 12.9281)" fill="#82828C"/>
<rect x="172.518" y="21.5024" width="3.46863" height="16.1869" transform="rotate(21.8832 172.518 21.5024)" fill="#797982"/>
<rect x="176.827" y="10.7735" width="3.46863" height="3.46863" transform="rotate(21.8832 176.827 10.7735)" fill="#797982"/>
<rect x="93.6032" y="305.835" width="23.7981" height="21.9604" rx="2" transform="rotate(126.292 93.6032 305.835)" fill="#797982"/>
<rect x="93.4581" y="310.011" width="5.22707" height="26.2902" rx="1" transform="rotate(126.292 93.4581 310.011)" fill="#CECECF"/>
<rect x="87.7905" y="302.034" width="17.2997" height="3.40537" transform="rotate(125.467 87.7905 302.034)" fill="#F8F8F8" fill-opacity="0.4"/>
<rect x="59.4717" y="358.214" width="37.4975" height="36.283" rx="2" transform="rotate(126.292 59.4717 358.214)" fill="#00D492"/>
<rect x="87.437" y="369.369" width="5.50133" height="56.5571" rx="2" transform="rotate(126.292 87.437 369.369)" fill="#00D492"/>
<rect x="87.5314" y="320.09" width="72.0419" height="29.5183" rx="2" transform="rotate(126.292 87.5314 320.09)" fill="#00D492"/>
<rect x="85.0169" y="320.044" width="70.5902" height="25.4112" rx="2" transform="rotate(126.292 85.0169 320.044)" fill="#18181B"/>
<rect x="85.8294" y="369.598" width="3.23028" height="55.3965" rx="1.61514" transform="rotate(126.292 85.8294 369.598)" fill="#18181B"/>
<rect x="57.4889" y="357.53" width="34.7401" height="31.7615" rx="2" transform="rotate(126.292 57.4889 357.53)" fill="#18181B"/>
<rect x="31.1227" y="351.967" width="19.1682" height="3.39099" rx="1.69549" transform="rotate(126.292 31.1227 351.967)" fill="#004F3B"/>
<rect x="38.7903" y="373.646" width="6.27207" height="3.39099" rx="1.69549" transform="rotate(126.292 38.7903 373.646)" fill="#004F3B"/>
<circle cx="67.9577" cy="322.152" r="5.78105" transform="rotate(21.8832 67.9577 322.152)" fill="#797982"/>
<circle cx="54.4054" cy="340.382" r="5.78105" transform="rotate(21.8832 54.4054 340.382)" fill="#797982"/>
<circle cx="40.8531" cy="358.613" r="5.78105" transform="rotate(21.8832 40.8531 358.613)" fill="#797982"/>
</svg>
